<svg id="Capa_1" data-name="Capa 1" xmlns="http://www.w3.org/2000/svg" width="105.49" height="132.87" viewBox="0 0 105.49 132.87"><defs><style>.cls-1{fill:#5987b8;}.cls-2{fill:#fff;}</style></defs><path class="cls-1" d="M65.79,31.31c-.18.06-.24.18-.35.3C64.61,32.4,63.78,33.2,63,34c-.47.47-.47.47-.94,0l-6.68-6.68-.12-.12a.22.22,0,0,1,0-.35c.3-.36.59-.65.95-1q7.8-7.8,15.6-15.54c.16-.16.34-.31.53-.47a3.75,3.75,0,0,1,2.31-1,4.16,4.16,0,0,1,3.07,1c.24.2.47.41.71.65L94.69,26.76c.24.24.24.3,0,.53q-3.48,3.43-6.91,6.92c-.3.23-.3.23-.59,0-.71-.65-1.36-1.36-2-2.07a1.08,1.08,0,0,0-.42-.3c-.12.12-.06.24-.12.36-.17,1.95-.35,3.9-.59,5.85-.11,1.12-.17,2.3-.29,3.43-.16,1.34-.32,2.68-.47,4l-.24,2.71c-.28,2.45-.53,4.89-.77,7.33-.24,2-.41,3.9-.59,5.85-.16,1.54-.32,3.06-.47,4.56s-.36,3-.48,4.37-.23,2.54-.41,3.84L80,77.59c-.12,1.42-.26,2.83-.42,4.25-.12,1.15-.23,2.27-.35,3.37q-.18,2.07-.42,4.08c-.15,1.38-.29,2.74-.41,4.08-.24,2.13-.47,4.31-.71,6.44-.12,1.48-.29,3-.41,4.43-.12,1.3-.3,2.6-.42,3.84l-.23,2.72-.06.06c-.06.36,0,.77-.36,1a2.26,2.26,0,0,1-1.47.41,2.34,2.34,0,0,1-1-.47.6.6,0,0,1-.29-.59c-.06-.54-.12-1.07-.18-1.54-.06-1-.18-1.89-.3-2.84-.12-1.53-.29-3.07-.41-4.55-.06-1.12-.24-2.24-.36-3.37l-.23-3c-.12-1.18-.24-2.39-.36-3.61-.12-1-.21-2-.29-3s-.16-1.79-.24-2.66-.24-2.07-.29-3.07c-.12-1.25-.24-2.49-.36-3.79-.08-1-.18-2-.29-2.89q-.18-2-.36-4c-.08-1-.16-2-.24-3l-.35-3.78C69,65,68.92,63.7,68.81,62.4s-.24-2.54-.36-3.84c-.08-.91-.18-1.83-.29-2.78-.12-1.58-.26-3.15-.42-4.73-.12-1.26-.23-2.5-.35-3.72-.08-.83-.16-1.64-.24-2.42-.12-1-.22-2-.29-3-.16-1.5-.3-3-.42-4.43-.12-1.18-.24-2.37-.35-3.49-.12-.89-.18-1.77-.3-2.72Z" transform="translate(-21.97 -8.84)"/><path class="cls-2" d="M79.15,111.28a2,2,0,0,1,0-.6c.12-1.14.21-2.3.29-3.48.18-2,.36-4.08.54-6.09.11-1.42.23-2.82.35-4.2,0-.41.06-.82.06-1.3a.81.81,0,0,1,.29-.65,2.33,2.33,0,0,1,.42-.41L110.65,65c.31-.32.63-.65.94-1a4.18,4.18,0,0,0,0-5.37A5.89,5.89,0,0,0,111,58L93.21,40.24l-3.42-3.43-1-1c-.18-.23-.18-.23,0-.41q1.95-1.89,3.84-3.84c1-1,2.07-2.05,3.14-3.08.29-.35.29-.35.65,0l1,1q13.41,13.41,26.83,26.89c.59.59,1.18,1.16,1.78,1.71a4.61,4.61,0,0,1,1.35,2.37,4.11,4.11,0,0,1-.82,3.49,5.51,5.51,0,0,1-.77.82l-.47.48q-21.59,21.63-43.15,43.2c-.88.83-1.65,1.71-2.54,2.48a1.74,1.74,0,0,1-.47.36Z" transform="translate(-21.97 -8.84)"/><path class="cls-2" d="M22.47,61.51a3.83,3.83,0,0,1,1-2.83c1-1.19,2.13-2.25,3.2-3.37,1.71-1.72,3.48-3.43,5.2-5.14q10.52-10.53,21-21c.23-.23.47-.53.71-.76s.29-.24.59,0l2.48,2.48c1.42,1.42,2.82,2.83,4.2,4.25a1.18,1.18,0,0,1,.29.3c.18.18.18.18,0,.41a2.47,2.47,0,0,1-.29.24q-1,1-2,2-5.62,5.61-11.23,11.17-3.55,3.48-7,7c-.75.75-1.49,1.52-2.24,2.31a4.12,4.12,0,0,0,.17,5.67l.3.3Q54,79.65,69.1,94.79a1.07,1.07,0,0,1,.41.94q.3,3.19.54,6.39.28,3,.53,6.08c.08.91.16,1.83.23,2.78v.18c0,.12-.11.12-.17.06a.39.39,0,0,1-.18-.18c-.24-.2-.47-.41-.71-.65Q48.42,89,27.08,67.66c-1.18-1.12-2.31-2.25-3.43-3.37a4.38,4.38,0,0,1-1.18-2.78Z" transform="translate(-21.97 -8.84)"/><path class="cls-2" d="M58.05,128.55c-.06.17,0,.29,0,.47q-.06,5.85-.06,11.7a.26.26,0,0,1,0,.24c0,.35,0,.35-.3.35H54.86c-.36,0-.36,0-.36-.29V122.58c0-.3,0-.3.3-.3h2.84a.48.48,0,0,1,.47.24l7.44,11.23a4.44,4.44,0,0,0,.42.65.86.86,0,0,0,.06-.53V122.81c0-.59,0-.53.53-.53h2.66c.35,0,.35,0,.35.3v18.26c0,.53.06.47-.53.47H66.91c-.17,0-.29,0-.35-.17L61,132.86q-1.29-2-2.66-4c-.05-.06-.11-.23-.29-.29Z" transform="translate(-21.97 -8.84)"/><path class="cls-2" d="M125.66,126.3c-.18.06-.29-.06-.35-.06a13.93,13.93,0,0,0-5.09-1,7.92,7.92,0,0,0-2.36.47,4.94,4.94,0,0,0-2.84,3.37,9.41,9.41,0,0,0,0,5.26,5.15,5.15,0,0,0,2.54,3.31,6.24,6.24,0,0,0,3.14.71,17.28,17.28,0,0,0,2-.24.49.49,0,0,0,.23-.06c.2,0,.3-.14.3-.29,0-1,0-1.89,0-2.84,0-.24-.12-.3-.3-.3h-1.47c-.36,0-.36,0-.36-.35V132c0-.29,0-.29.3-.29h5c.36,0,.36,0,.36.29V140a.53.53,0,0,1-.3.48,14.17,14.17,0,0,1-2.25.76,14,14,0,0,1-3.54.48,9.18,9.18,0,0,1-6.68-2.25,9.32,9.32,0,0,1-2.78-4.79,12,12,0,0,1,.24-6.44,8.47,8.47,0,0,1,2.13-3.6,8.36,8.36,0,0,1,5-2.54,14.56,14.56,0,0,1,7.27.82c.3.12.3.12.3.48-.12.78-.22,1.57-.3,2.36a3,3,0,0,0-.06.59Z" transform="translate(-21.97 -8.84)"/><path class="cls-2" d="M39.37,131.8v-9.28c0-.18.06-.24.24-.24H51.07c.48,0,.48-.06.48.47v2.61c0,.35,0,.35-.36.35H43.45c-.53,0-.47-.06-.47.47v3.14c0,.35,0,.35.35.35h5.79c.48,0,.48,0,.48.47v2.6c0,.36,0,.36-.36.36H43.16c-.16,0-.22.06-.18.17v4.26c0,.35,0,.35.35.35h8c.53,0,.47,0,.47.54v2.48c0,.47,0,.41-.41.41H39.61c-.16,0-.24-.06-.24-.17V131.8Z" transform="translate(-21.97 -8.84)"/><path class="cls-2" d="M95.76,131.8v-9.1c0-.42,0-.42.41-.42h11.46c.3,0,.3,0,.3.3v2.89a.21.21,0,0,1-.24.24H99.6c-.18,0-.3.06-.3.24v3.48c0,.18.06.24.24.24h6.09c.35,0,.35,0,.35.35v2.72c0,.36,0,.36-.35.36H100c-.65,0-.65,0-.65.65v3.84c0,.29,0,.29.36.29h8c.59,0,.54,0,.54.6V141c0,.35,0,.35-.36.35H96.23c-.47,0-.47.06-.47-.47v-9Z" transform="translate(-21.97 -8.84)"/><path class="cls-2" d="M36.42,137.29c.12,1,.23,2,.35,3,.06.23-.06.29-.23.41a12.51,12.51,0,0,1-2.55.77,15,15,0,0,1-3.66.18A8.86,8.86,0,0,1,22.41,135a11.29,11.29,0,0,1,.59-7.86,8.43,8.43,0,0,1,6.56-5.08,10.59,10.59,0,0,1,3.37-.06,10.68,10.68,0,0,1,3.61.88c.23.12.29.12.23.42-.12.94-.23,1.89-.35,2.83v.18c-.12.06-.18,0-.3-.06a12.47,12.47,0,0,0-4.9-.94A5,5,0,0,0,28,126.36a5.65,5.65,0,0,0-1.89,3.25,11.72,11.72,0,0,0-.18,3.25,7.26,7.26,0,0,0,1,3.13,4.93,4.93,0,0,0,4.26,2.37,13.7,13.7,0,0,0,4.9-1,.4.4,0,0,1,.36-.06Z" transform="translate(-21.97 -8.84)"/><path class="cls-2" d="M87.6,133.51v7.39c0,.47.06.41-.41.41H84.53c-.42,0-.42,0-.42-.41v-15c0-.12-.06-.18-.23-.18H79c-.18,0-.24-.06-.24-.24v-3c0-.18.06-.24.3-.24H92.68c.36,0,.36,0,.36.36v2.66c0,.41,0,.41-.42.41H88.07c-.47,0-.47-.06-.47.41v7.39Z" transform="translate(-21.97 -8.84)"/><path class="cls-2" d="M72.53,131.8v-9.22c0-.3,0-.3.29-.3h3c.24,0,.29,0,.29.3v18.2c0,.65.06.53-.59.53H73c-.47,0-.47.06-.47-.41v-9.1Z" transform="translate(-21.97 -8.84)"/></svg>